<?xml version="1.0" encoding="UTF-8"?>
<svg version="1.1" xmlns="http://www.w3.org/2000/svg" width="385" height="379">
<path d="M0 0 C0.7626416 0.16628906 1.5252832 0.33257812 2.31103516 0.50390625 C44.86611894 9.99378659 83.04611709 34.83118883 110 69 C110.74507813 69.93972656 111.49015625 70.87945312 112.2578125 71.84765625 C120.71547943 82.7954725 127.37473073 94.37087842 133.375 106.8125 C133.79193115 107.67157959 134.2088623 108.53065918 134.63842773 109.41577148 C136.99069471 114.40756495 138.81695353 119.33699234 140.30566406 124.64916992 C140.93569613 126.78228483 141.683573 128.78661691 142.5234375 130.84375 C144.5946113 136.2228611 145.54295617 141.85600594 146.625 147.5 C146.8415625 148.58925781 147.058125 149.67851562 147.28125 150.80078125 C152.26557091 176.24543181 151.76400452 203.72522188 146 229 C145.82339844 229.77746582 145.64679688 230.55493164 145.46484375 231.35595703 C139.05189261 258.23691055 124.91738942 284.11883188 107 305 C106.39671875 305.73734375 105.7934375 306.4746875 105.171875 307.234375 C103.82929237 308.86372285 102.42189394 310.4393847 101 312 C100.34 312 99.68 312 99 312 C98.690625 312.8353125 98.690625 312.8353125 98.375 313.6875 C96.86435988 316.22812201 95.06141825 317.76507497 92.73046875 319.55859375 C90.84699771 321.08187244 90.84699771 321.08187244 88.69921875 323.3125 C85.78495662 326.21410976 82.7560536 328.90036599 79.625 331.5625 C78.81675781 332.26536133 78.81675781 332.26536133 77.9921875 332.98242188 C74.80720175 335.69345141 71.64024398 337.85932409 67.94384766 339.85766602 C65.61116022 341.22850808 63.48025734 342.80081414 61.296875 344.3984375 C55.91205415 348.21421191 50.26977091 350.95629272 44.25 353.625 C43.18942383 354.1008252 42.12884766 354.57665039 41.03613281 355.06689453 C27.03128809 361.28531977 12.96547204 365.73433361 -2 369 C-2.75394043 369.16806152 -3.50788086 369.33612305 -4.28466797 369.50927734 C-47.67107771 378.75367686 -96.14721739 369.59737508 -134 347 C-136.94888691 345.02568425 -139.78667783 342.97617512 -142.6015625 340.81640625 C-144.79963999 339.15173844 -147.03279108 337.70014018 -149.375 336.25 C-157.80065978 330.7292157 -164.91863011 323.10410302 -172 316 C-172.83917969 315.195625 -173.67835938 314.39125 -174.54296875 313.5625 C-203.22655966 285.7686512 -218.7505862 248.98858477 -225 210 C-225.17724609 208.91251465 -225.35449219 207.8250293 -225.53710938 206.70458984 C-226.02032579 202.83732933 -226.16165436 199.04220987 -226.16796875 195.15234375 C-226.17129715 194.41859024 -226.17462555 193.68483673 -226.17805481 192.92884827 C-226.18309041 191.38168966 -226.18546418 189.83452031 -226.18530273 188.28735352 C-226.18747142 185.96806988 -226.2056137 183.64927677 -226.22460938 181.33007812 C-226.26064897 172.04817735 -225.64913902 163.16196151 -224 154 C-223.82831299 153.0313501 -223.65662598 152.0627002 -223.47973633 151.06469727 C-219.79269673 131.34824871 -213.39497026 113.67007592 -204 96 C-203.21109375 94.47246094 -203.21109375 94.47246094 -202.40625 92.9140625 C-199.0679329 86.57481142 -195.2392197 80.76909938 -191 75 C-190.20829159 73.90237386 -189.41662707 72.80471606 -188.625 71.70703125 C-187.81343197 70.595673 -187.0009437 69.48498612 -186.1875 68.375 C-185.43855469 67.35148437 -184.68960938 66.32796875 -183.91796875 65.2734375 C-183.28503906 64.52320312 -182.65210938 63.77296875 -182 63 C-181.34 63 -180.68 63 -180 63 C-179.73372803 62.40920654 -179.46745605 61.81841309 -179.19311523 61.2097168 C-177.97331824 58.95058387 -176.7157357 57.45754434 -174.91015625 55.64453125 C-174.29575684 55.02618408 -173.68135742 54.40783691 -173.04833984 53.77075195 C-172.06534912 52.80141724 -172.06534912 52.80141724 -171.0625 51.8125 C-170.3917041 51.14629639 -169.7209082 50.48009277 -169.02978516 49.79370117 C-163.62252772 44.48371511 -157.99529811 39.63992544 -152 35 C-151.19691406 34.33871094 -150.39382812 33.67742188 -149.56640625 32.99609375 C-144.68972355 29.20311832 -139.29842286 26.16214691 -134 23 C-133.12166504 22.47237061 -133.12166504 22.47237061 -132.22558594 21.93408203 C-130.46861909 20.88349948 -128.70452679 19.84605802 -126.9375 18.8125 C-125.89464844 18.20019531 -124.85179688 17.58789062 -123.77734375 16.95703125 C-87.33808641 -2.82237414 -40.50902712 -9.24257165 0 0 Z M-69 46 C-69.71075684 46.14985352 -70.42151367 46.29970703 -71.15380859 46.45410156 C-80.16822185 48.39237531 -88.63675753 51.06371508 -97 55 C-98.14339844 55.53753906 -99.28679687 56.07507813 -100.46484375 56.62890625 C-113.41937208 62.91628319 -124.21517507 70.56152512 -135 80 C-135.75410156 80.63035156 -136.50820312 81.26070312 -137.28515625 81.91015625 C-149.72854713 92.374479 -159.67962856 105.54380429 -167 120 C-167.49113281 120.89847656 -167.98226562 121.79695313 -168.48828125 122.72265625 C-180.67965381 145.62479539 -184.11240959 170.36640412 -183 196 C-182.97196289 196.81033691 -182.94392578 197.62067383 -182.91503906 198.45556641 C-181.74410632 226.2863442 -168.74698005 253.27828073 -152 275 C-151.34016113 275.86842529 -151.34016113 275.86842529 -150.66699219 276.75439453 C-144.89386553 284.28968032 -138.55542598 290.28485175 -131 296 C-130.32324219 296.54140625 -129.64648438 297.0828125 -128.94921875 297.640625 C-124.16522469 301.40442985 -119.02632522 304.4033259 -113.73828125 307.40625 C-111 309 -111 309 -108.0625 311.125 C-95.0706156 319.07921494 -75.25313752 324.66411485 -60 325 C-56.09906117 323.93099272 -52.84268357 322.94420798 -50 320 C-47.97052336 314.97462928 -47.55838277 311.22586244 -49 306 C-51.89952676 300.59550233 -55.1086407 296.69834484 -60 293 C-61.08882175 291.85785966 -62.14822173 290.6873997 -63.1875 289.5 C-63.80109375 288.81550781 -64.4146875 288.13101563 -65.046875 287.42578125 C-67 285 -67 285 -68.828125 281.91796875 C-71.79197555 277.37888653 -74.16789725 273.82756249 -79.55664062 272.25292969 C-84.69859306 271.34624017 -89.86523205 270.95727943 -95.06640625 270.55078125 C-112.00443402 269.21532923 -127.91079952 260.41708299 -141 250 C-141.69480469 249.47019531 -142.38960937 248.94039062 -143.10546875 248.39453125 C-149.51300562 243.21478588 -154.21961883 236.63424618 -159 230 C-159.64195312 229.13632813 -160.28390625 228.27265625 -160.9453125 227.3828125 C-169.86814071 214.53874141 -175.48169228 197.59080355 -175.125 181.9375 C-175.11597656 181.16728516 -175.10695313 180.39707031 -175.09765625 179.60351562 C-175.07445155 177.73553757 -175.03859819 175.86772338 -175 174 C-153.85972689 166.9532423 -126.00899891 175.48655088 -106.94140625 185 C-98.816298 189.22133384 -92.08363587 194.07950913 -85.55859375 200.4921875 C-83.44206127 202.56671247 -81.30200602 204.45337463 -79 206.3125 C-75.97784767 208.89150019 -74.04207001 211.55400686 -72 215 C-71.46503906 215.83144531 -70.93007812 216.66289062 -70.37890625 217.51953125 C-61.79396478 231.31082431 -59.33028438 244.19876706 -58.25097656 260.18945312 C-57.52038487 269.32564128 -55.73047255 273.54567279 -49.09765625 279.6875 C-48.09605469 280.450625 -47.09445313 281.21375 -46.0625 282 C-45.06347656 282.78375 -44.06445312 283.5675 -43.03515625 284.375 C-40.12897389 286.23593219 -40.12897389 286.23593219 -36.97265625 286.01171875 C-30.51204764 283.81290452 -24.37042999 278.3355944 -20.375 272.8125 C-18.06562702 268.08878255 -17.88330337 263.00539783 -17.40454102 257.83325195 C-15.07851555 233.49763569 -5.80468149 212.29183192 13.08984375 196.22265625 C18.42534928 191.93737325 23.99520385 188.27692794 30 185 C30.91910156 184.4946875 31.83820313 183.989375 32.78515625 183.46875 C42.68429641 178.46170104 53.19961975 176.25199908 64 174 C64.81162598 173.82275391 65.62325195 173.64550781 66.45947266 173.46289062 C71.05912968 172.62482127 75.71187168 172.53273591 80.375 172.3125 C81.39078125 172.25255859 82.4065625 172.19261719 83.453125 172.13085938 C89.12283838 171.86210023 93.65634402 172.03564196 99 174 C102.22023514 192.13132393 94.98327732 212.73755072 85.15625 227.83203125 C78.36680513 237.4638826 71.15013943 245.64399318 61.3828125 252.30859375 C59.05668008 253.8373471 59.05668008 253.8373471 57.62890625 255.48046875 C48.03978099 264.42571989 30.85436937 269.39207082 18.125 270.65234375 C17.10220947 270.75635498 16.07941895 270.86036621 15.02563477 270.9675293 C13.01380146 271.15155105 10.99794142 271.29692751 8.98022461 271.39770508 C4.81845201 271.75520864 2.03444782 272.02760933 -1.07958984 274.95483398 C-2.83822305 277.24086871 -4.42338155 279.58627413 -6 282 C-7.46104727 283.5582923 -8.95392189 285.08853375 -10.5 286.5625 C-14.5648741 290.53765701 -18.35674462 294.63676796 -22 299 C-22.58265625 299.65871094 -23.1653125 300.31742187 -23.765625 300.99609375 C-26.48537491 304.25598091 -28.38637536 306.79684271 -28.625 311.125 C-27.79323398 316.28194929 -25.81152443 319.05428858 -22.3125 322.8125 C-15.50659569 326.30742384 -8.08285633 324.81169285 -1 323 C0.36813843 322.6604126 0.36813843 322.6604126 1.76391602 322.31396484 C26.9994807 315.75830199 54.03311718 302.09909515 70 281 C70.75667969 280.25878906 71.51335937 279.51757812 72.29296875 278.75390625 C97.33406597 253.27919696 107.44954397 217.25290764 107.43603516 182.40917969 C106.94625846 149.39739335 94.69745519 115.47632808 71 92 C69.55265883 90.38375905 68.11506251 88.75873698 66.6875 87.125 C51.54401593 70.29338984 32.02207162 58.86761679 11 51 C10.24589844 50.66871094 9.49179688 50.33742188 8.71484375 49.99609375 C4.44829715 48.43067018 0.04569558 47.47206556 -4.375 46.4375 C-5.29539063 46.21642578 -6.21578125 45.99535156 -7.1640625 45.76757812 C-27.28839045 41.00961202 -48.8300296 41.6024909 -69 46 Z " fill="#0A0B0A" transform="translate(231,6)"/>
<path d="M0 0 C1.40958984 0.79277344 1.40958984 0.79277344 2.84765625 1.6015625 C8.62472944 4.94101439 13.85679661 8.75569883 19 13 C20.08861328 13.88558594 20.08861328 13.88558594 21.19921875 14.7890625 C25.28503862 18.21782816 28.28663926 21.40815875 31 26 C31.66 26.99 32.32 27.98 33 29 C33.51410028 32.85575207 33.17564278 34.6747356 31.3125 38.125 C26.97465154 43.51800079 21.99832083 47.13571338 15 48 C11.02654853 46.9424865 8.66132235 44.8484625 6.1640625 41.64453125 C-4.53930568 28.5647835 -21.9684878 20.75925038 -38 17 C-38.83273438 16.78730469 -39.66546875 16.57460937 -40.5234375 16.35546875 C-45.97345293 15.0264299 -51.40450394 14.34177036 -57 14 C-58.4540625 13.90138672 -58.4540625 13.90138672 -59.9375 13.80078125 C-74.64004771 13.28831264 -91.66718942 15.6087162 -105 22 C-106.03898437 22.49242187 -107.07796875 22.98484375 -108.1484375 23.4921875 C-119.05955026 29.01132845 -127.92958111 36.40925949 -136.1875 45.375 C-140.50573841 47.86998219 -144.2586962 47.06581375 -149 46 C-153.5149611 44.29434803 -155.76097147 41.197776 -158.1015625 37.10546875 C-159.62066617 33.54548233 -159.27483796 31.63328818 -158 28 C-152.36757741 19.0046898 -144.32376944 11.03324974 -135.328125 5.44921875 C-132.98366738 4.02907648 -132.98366738 4.02907648 -130.796875 2.39453125 C-117.98806763 -6.63361201 -101.3972387 -12.4299691 -86 -15 C-84.56914062 -15.25910156 -84.56914062 -15.25910156 -83.109375 -15.5234375 C-53.95347436 -19.99205544 -25.49665239 -14.64393429 0 0 Z " fill="#111211" transform="translate(256,99)"/>
<path d="M0 0 C0.80824219 0.31324219 1.61648437 0.62648437 2.44921875 0.94921875 C11.16351687 4.72401133 19.73368244 12.10052366 25 20 C25.75494951 24.60870339 25.43664672 28.14287866 23.3125 32.3125 C19.31224988 36.96143933 16.4492643 39.4859137 10.14453125 40.15844727 C6.12879891 39.86174755 3.59632106 37.33374002 0.625 34.8125 C-11.54675662 25.18846133 -23.53282697 22.70581554 -39 24 C-48.79693863 25.71092254 -56.03646573 30.26484793 -64 36 C-67.48532578 38.4403894 -70.07053404 39.94930186 -74.4375 40.1875 C-79.27901669 38.5736611 -82.61040201 35.78642897 -86 32 C-87.40497271 27.78508188 -88.02668892 24.38369152 -87 20 C-82.25705989 12.65068006 -75.3082666 7.58919771 -68 3 C-66.9275 2.278125 -65.855 1.55625 -64.75 0.8125 C-45.72547176 -9.67132554 -19.37177992 -8.21921097 0 0 Z " fill="#131412" transform="translate(224,146)"/>
<path d="M0 0 C5.93856395 3.31916552 11.33079314 8.52240405 13.75 15 C14.53289201 23.41153737 15.03997525 31.96317934 9.75 39 C9.32589844 39.62261719 8.90179688 40.24523437 8.46484375 40.88671875 C4.79235302 45.76632343 0.6841019 48.52509967 -5.25 50 C-12.03799647 50.9034949 -18.27185362 51.19594861 -24.25 47.5 C-29.93134985 43.01416697 -34.85882149 37.23412823 -36.25 30 C-37.0296083 19.86509206 -35.26029551 12.87265621 -29 4.796875 C-21.60908474 -2.79201121 -9.40944256 -4.29404883 0 0 Z " fill="#101110" transform="translate(204.25,185)"/>
<path d="M0 0 C0.66 0.33 1.32 0.66 2 1 C0.92492371 2.29854721 -0.16043736 3.58858361 -1.25 4.875 C-1.85328125 5.59429687 -2.4565625 6.31359375 -3.078125 7.0546875 C-4.97087634 8.97052118 -6.53657727 9.96449045 -9 11 C-6.83515595 7.01212939 -4.28817903 4.11511698 -1 1 C-0.67 0.67 -0.34 0.34 0 0 Z " fill="#6A7269" transform="translate(180,186)"/>
</svg>
